HIERARCHY
ROOT Joint1
{
	OFFSET 0.000000 0.000000 0.000000
	CHANNELS 6 Xposition Yposition Zposition Xrotation Yrotation Zrotation
	JOINT Joint2
	{
		OFFSET -0.000000 0.000000 1.456275
		CHANNELS 6 Xposition Yposition Zposition Xrotation Yrotation Zrotation
		JOINT Joint3
		{
			OFFSET -0.000000 0.000002 1.471446
			CHANNELS 6 Xposition Yposition Zposition Xrotation Yrotation Zrotation
			JOINT Joint4
			{
				OFFSET 0.625745 0.000000 0.917755
				CHANNELS 6 Xposition Yposition Zposition Xrotation Yrotation Zrotation
				JOINT Joint5
				{
					OFFSET -0.629534 0.000001 0.940221
					CHANNELS 6 Xposition Yposition Zposition Xrotation Yrotation Zrotation
					JOINT Joint6
					{
						OFFSET -0.000001 0.113772 1.960660
						CHANNELS 6 Xposition Yposition Zposition Xrotation Yrotation Zrotation
						JOINT Joint7
						{
							OFFSET -0.669733 -0.113771 0.388340
							CHANNELS 6 Xposition Yposition Zposition Xrotation Yrotation Zrotation
							End Site
							{
								OFFSET 0.005509 0.005509 0.438980
							}
						}
					}
				}
			}
		}
	}
}
MOTION
Frames: 12
Frame Time: 0.041667
0.000000 0.000000 0.000000 -0.000000 1.019410 15.025072 -0.000000 0.000000 1.456275 -0.000000 -12.697294 0.000000 -0.000000 0.000002 1.471446 -0.000001 -1.133459 24.116259 0.625745 0.000000 0.917755 0.000006 144.961217 -0.000001 -0.629534 0.000001 0.940221 -0.000001 1.709736 35.631649 -0.000001 0.113772 1.960660 -88.303875 -222.684166 0.000006 -0.669733 -0.113771 0.388340 0.076837 3.199675 84.735019 
0.000000 0.000000 0.000000 -0.000000 1.019410 14.554476 -0.000000 -0.000000 1.456275 -0.000000 -13.707896 -0.000000 -0.000000 0.000002 1.471446 -0.000000 -1.133458 23.360287 0.625744 0.000000 0.917755 0.000004 144.650101 -0.000002 -0.629534 0.000001 0.940221 -0.000000 1.709739 34.515729 -0.000001 0.113772 1.960661 -88.303882 -224.166262 -0.000000 -0.669733 -0.113771 0.388340 0.058700 3.220867 86.307022 
0.000000 0.000000 0.000000 -0.000000 1.019410 13.893401 -0.000000 0.000000 1.456275 -0.000000 -15.127556 0.000001 -0.000000 0.000002 1.471446 -0.000001 -1.133458 22.298314 0.625744 0.000000 0.917755 0.000004 144.213024 0.000001 -0.629534 0.000001 0.940221 -0.000003 1.709741 32.948126 -0.000001 0.113772 1.960660 -88.303882 -226.248268 0.000000 -0.669733 -0.113771 0.388340 0.032239 3.249781 88.515399 
0.000000 0.000000 0.000000 -0.000000 1.019410 13.230695 -0.000000 0.000000 1.456275 -0.000000 -16.550720 -0.000001 -0.000000 0.000002 1.471446 -0.000000 -1.133457 21.233726 0.625745 0.000000 0.917755 0.000003 143.774895 -0.000002 -0.629533 0.000001 0.940220 -0.000005 1.709737 31.376639 -0.000001 0.113772 1.960661 -88.303875 -228.335396 0.000002 -0.669733 -0.113771 0.388339 0.004615 3.277727 90.729303 
0.000000 0.000000 0.000000 -0.000000 1.019410 12.756107 -0.000000 0.000000 1.456275 0.000000 -17.569895 0.000001 -0.000000 0.000002 1.471446 -0.000000 -1.133460 20.471335 0.625745 0.000000 0.917755 0.000001 143.461129 0.000001 -0.629534 0.000001 0.940220 -0.000003 1.709739 30.251256 -0.000001 0.113772 1.960660 -88.303882 -229.830074 0.000003 -0.669733 -0.113771 0.388341 -0.015827 3.297073 92.314795 
0.000000 0.000000 0.000000 -0.000000 1.019410 12.371540 -0.000000 -0.000000 1.456275 -0.000000 -18.395762 0.000000 -0.000000 0.000002 1.471446 -0.000001 -1.133460 19.853552 0.625744 0.000000 0.917755 0.000004 143.206869 0.000000 -0.629534 0.000001 0.940220 -0.000001 1.709736 29.339317 -0.000001 0.113772 1.960660 -88.303882 -231.041230 0.000005 -0.669733 -0.113771 0.388340 -0.032770 3.312328 93.599594 
0.000000 0.000000 0.000000 -0.000000 1.019410 11.906913 -0.000000 -0.000000 1.456275 0.000000 -19.393547 -0.000001 -0.000000 0.000002 1.471445 0.000000 -1.133456 19.107159 0.625745 0.000000 0.917755 0.000000 142.899688 0.000001 -0.629533 0.000001 0.940221 -0.000001 1.709738 28.237547 -0.000001 0.113772 1.960661 -88.303882 -232.504530 0.000005 -0.669733 -0.113771 0.388340 -0.053700 3.330256 95.151878 
0.000000 0.000000 0.000000 -0.000000 1.019410 11.257899 -0.000000 0.000000 1.456275 -0.000000 -20.787305 0.000000 -0.000000 0.000002 1.471445 -0.000000 -1.133459 18.064561 0.625745 0.000000 0.917755 0.000002 142.470602 -0.000001 -0.629534 0.000001 0.940220 -0.000000 1.709736 26.698535 -0.000001 0.113772 1.960661 -88.303875 -234.548532 -0.000002 -0.669733 -0.113771 0.388340 -0.083729 3.354330 97.320251 
0.000000 0.000000 0.000000 -0.000000 1.019410 10.583130 -0.000000 0.000000 1.456275 0.000000 -22.236374 -0.000000 -0.000000 0.000002 1.471446 0.000000 -1.133458 16.980598 0.625744 0.000000 0.917755 0.000004 142.024481 0.000000 -0.629534 0.000001 0.940221 0.000001 1.709735 25.098456 -0.000001 0.113772 1.960660 -88.303882 -236.673677 0.000006 -0.669733 -0.113771 0.388340 -0.115899 3.378135 99.574726 
0.000000 0.000000 0.000000 -0.000000 1.019410 10.055551 -0.000000 0.000000 1.456275 0.000000 -23.369356 -0.000000 -0.000000 0.000002 1.471445 -0.000000 -1.133458 16.133076 0.625745 0.000000 0.917755 0.000004 141.675677 -0.000000 -0.629534 0.000001 0.940221 -0.000001 1.709736 23.847401 -0.000001 0.113772 1.960661 -88.303882 -238.335244 0.000001 -0.669733 -0.113771 0.388339 -0.141686 3.395858 101.337474 
0.000000 0.000000 0.000000 -0.000000 1.019410 9.642366 -0.000000 0.000000 1.456275 -0.000000 -24.256672 0.000001 -0.000001 0.000002 1.471446 -0.000000 -1.133460 15.469328 0.625745 0.000000 0.917755 -0.000000 141.402497 -0.000001 -0.629534 0.000001 0.940221 0.000001 1.709736 22.867615 -0.000001 0.113772 1.960660 -88.303875 -239.636559 0.000001 -0.669733 -0.113771 0.388340 -0.162259 3.409180 102.718047 
0.000000 0.000000 0.000000 -0.000000 1.019410 9.259350 -0.000000 0.000000 1.456275 -0.000000 -25.079201 0.000000 -0.000001 0.000002 1.471446 -0.000000 -1.133459 14.854038 0.625745 0.000000 0.917755 0.000008 141.149274 -0.000001 -0.629534 0.000001 0.940221 -0.000001 1.709739 21.959360 -0.000001 0.113772 1.960660 -88.303875 -240.842797 -0.000003 -0.669733 -0.113771 0.388340 -0.181617 3.421087 103.997833 
